<?xml version="1.0" standalone="no"?>
<!DOCTYPE svg PUBLIC "-//W3C//DTD SVG 20010904//EN"
 "http://www.w3.org/TR/2001/REC-SVG-20010904/DTD/svg10.dtd">
<svg version="1.0" xmlns="http://www.w3.org/2000/svg"
 width="700.000000pt" height="700.000000pt" viewBox="0 0 700.000000 700.000000"
 preserveAspectRatio="xMidYMid meet">
<metadata>
Created by potrace 1.11, written by Peter Selinger 2001-2013
</metadata>
<g transform="translate(0.000000,700.000000) scale(0.100000,-0.100000)"
fill="#000000" stroke="none">
<path d="M3271 6619 c-296 -57 -547 -205 -737 -434 -107 -129 -219 -347 -209
-407 10 -57 56 -98 111 -98 37 0 89 27 101 53 6 12 30 61 54 109 164 335 500
552 872 562 434 13 829 -255 982 -667 22 -59 64 -91 117 -90 62 1 99 36 113
106 9 41 -72 218 -158 347 -27 41 -95 120 -151 175 -144 143 -301 241 -484
301 -66 22 -90 28 -187 49 -16 4 -97 8 -180 10 -113 1 -173 -2 -244 -16z"/>
<path d="M3375 6209 c-89 -12 -118 -20 -208 -50 -195 -65 -362 -188 -490 -361
-61 -83 -107 -167 -107 -198 0 -46 29 -90 71 -109 71 -32 121 -6 173 90 15 28
31 56 36 63 128 159 251 250 406 300 351 114 740 -34 928 -353 36 -61 57 -87
80 -96 72 -30 150 12 162 87 8 46 -28 118 -111 230 -147 196 -363 332 -609
384 -80 17 -255 24 -331 13z"/>
<path d="M3367 5814 c-115 -22 -219 -64 -306 -122 -64 -44 -156 -137 -200
-203 -49 -73 -50 -123 -6 -169 61 -63 138 -47 200 42 192 271 592 307 819 73
33 -34 79 -83 102 -109 34 -39 46 -46 78 -46 51 0 90 23 110 65 32 66 1 132
-118 251 -110 110 -228 176 -373 210 -89 20 -223 24 -306 8z"/>
<path d="M2375 5169 c-139 -9 -230 -69 -287 -188 l-32 -66 0 -2140 c0 -2033 1
-2143 18 -2193 26 -77 82 -142 157 -182 l64 -35 1184 -3 c1084 -2 1189 -1
1235 14 101 33 170 99 209 198 20 51 20 67 21 2161 1 1161 -2 2135 -7 2164
-17 112 -98 211 -206 251 -56 22 -62 22 -1166 23 -610 1 -1146 0 -1190 -4z
m2311 -203 c22 -12 47 -37 56 -56 17 -33 18 -156 18 -2145 0 -2040 -1 -2111
-19 -2145 -10 -19 -34 -44 -52 -55 -33 -20 -53 -20 -1189 -20 -1136 0 -1156 0
-1189 20 -18 11 -42 36 -52 55 -19 34 -19 101 -17 2156 l3 2121 28 36 c16 21
41 40 60 45 18 5 543 9 1173 10 l1142 0 38 -22z"/>
<path d="M4356 4884 c-58 -21 -98 -56 -128 -111 -128 -234 167 -467 366 -291
124 108 103 300 -41 385 -54 31 -136 39 -197 17z"/>
<path d="M3385 4400 c-165 -25 -333 -101 -448 -202 l-28 -25 87 -79 c48 -43
114 -104 147 -134 32 -30 63 -57 69 -58 5 -2 26 8 48 22 123 82 303 91 439 23
l49 -25 28 33 c31 35 144 161 206 229 21 23 38 43 38 46 0 9 -94 66 -161 97
-61 29 -121 49 -178 60 -14 2 -28 6 -33 9 -14 9 -212 12 -263 4z"/>
<path d="M4039 4048 c-149 -162 -189 -208 -189 -217 0 -4 8 -19 18 -32 44 -58
79 -181 76 -264 -3 -71 -23 -146 -55 -199 l-18 -31 152 -137 c83 -74 156 -134
162 -132 12 5 75 112 104 175 40 91 63 208 64 324 1 132 -7 186 -45 300 -31
90 -89 192 -160 278 l-23 29 -86 -94z"/>
<path d="M2767 3993 c-25 -43 -52 -94 -58 -113 -7 -19 -16 -41 -22 -47 -5 -7
-7 -13 -3 -13 3 0 1 -12 -5 -27 -33 -87 -44 -257 -24 -381 23 -145 74 -262
167 -386 l52 -69 50 55 c107 114 211 230 219 244 6 10 -3 32 -23 66 -41 66
-68 174 -64 253 3 61 33 160 60 200 13 17 11 23 -20 50 -18 16 -67 59 -107 95
-40 36 -93 84 -118 107 -25 24 -48 43 -52 43 -3 0 -26 -35 -52 -77z"/>
<path d="M3425 3885 c-110 -25 -184 -86 -237 -192 -27 -56 -32 -75 -32 -142 0
-65 5 -87 31 -142 60 -125 163 -196 295 -203 143 -7 263 65 329 199 88 180 -6
406 -196 470 -65 21 -127 25 -190 10z"/>
<path d="M3738 3175 c-82 -54 -217 -80 -318 -62 -46 8 -119 34 -146 52 -19 12
-24 11 -44 -13 -27 -32 -159 -179 -212 -236 -21 -23 -38 -43 -38 -46 0 -16
153 -100 235 -128 97 -34 154 -44 269 -47 211 -5 415 68 579 208 l28 24 -82
74 c-45 41 -87 79 -93 85 -63 59 -128 114 -134 113 -4 0 -23 -11 -44 -24z"/>
<path d="M2499 2641 c-39 -9 -85 -48 -103 -86 -48 -101 33 -221 146 -217 73 3
148 81 148 154 0 96 -97 171 -191 149z"/>
<path d="M4420 2628 c-53 -26 -83 -76 -83 -139 -1 -135 171 -201 264 -100 113
121 -31 313 -181 239z"/>
<path d="M2710 2043 c-114 -38 -174 -119 -174 -233 0 -137 96 -234 234 -235
267 -1 333 357 85 461 -33 13 -114 18 -145 7z"/>
<path d="M3420 2039 c-88 -36 -149 -113 -157 -202 -7 -71 9 -125 52 -174 50
-58 93 -82 162 -89 77 -8 148 21 201 82 45 51 61 95 58 166 -3 90 -64 179
-144 210 -45 17 -137 21 -172 7z"/>
<path d="M4160 2041 c-142 -43 -210 -192 -150 -327 87 -198 371 -183 444 23
52 147 -68 315 -223 312 -25 0 -57 -4 -71 -8z"/>
<path d="M2695 1274 c-98 -34 -165 -130 -160 -232 11 -250 338 -324 450 -101
60 117 11 259 -109 321 -48 25 -128 30 -181 12z"/>
<path d="M3445 1280 c-148 -34 -226 -197 -161 -336 60 -130 228 -176 347 -97
100 66 135 203 80 312 -47 92 -164 145 -266 121z"/>
<path d="M4168 1280 c-112 -34 -180 -124 -179 -238 0 -67 28 -128 76 -171 52
-45 93 -61 160 -61 69 0 119 20 168 68 147 142 56 390 -149 406 -27 3 -61 1
-76 -4z"/>
</g>
</svg>
